<svg version="1.0" xmlns="http://www.w3.org/2000/svg"
viewBox="0 0 1280.000000 830.000000"
 preserveAspectRatio="xMidYMid meet">

<g transform="translate(0.000000,830.000000) scale(0.100000,-0.100000)"
fill="#5156be" stroke="none">
<path d="M1746 8240 c-109 -33 -201 -61 -203 -64 -2 -2 38 -210 91 -463 52
-252 154 -741 226 -1088 72 -346 157 -758 190 -915 184 -882 270 -1301 270
-1310 0 -8 -24 -16 -104 -35 l-29 -6 6 -107 c4 -59 9 -122 13 -139 6 -31 5
-33 -42 -54 -27 -12 -206 -73 -399 -135 -704 -231 -1419 -473 -1589 -540 -184
-72 -224 -160 -123 -268 41 -43 46 -45 202 -86 l160 -42 180 57 c99 31 331
104 515 162 184 57 486 152 670 210 565 177 622 194 634 190 6 -3 52 -40 101
-84 330 -289 972 -772 1185 -891 30 -17 93 -40 140 -52 47 -12 164 -45 260
-75 287 -88 451 -134 520 -144 53 -8 489 -28 553 -25 9 0 17 -3 17 -8 0 -4 -4
-8 -9 -8 -5 0 -286 -123 -623 -274 -722 -323 -1684 -752 -2567 -1146 -580
-259 -635 -282 -647 -266 -7 10 -81 137 -164 283 l-153 264 -211 -7 c-116 -3
-212 -7 -212 -8 -1 0 45 -95 102 -211 138 -280 228 -484 276 -630 49 -147 68
-185 109 -219 77 -65 175 -94 344 -103 l120 -6 1400 561 c1256 503 1971 791
2773 1117 145 59 265 105 266 103 1 -1 9 -19 16 -38 20 -49 73 -140 82 -140 4
0 12 18 18 39 12 45 55 87 100 95 16 3 44 9 60 12 41 8 40 -13 -6 -73 -76
-100 -127 -232 -106 -279 13 -27 37 -30 85 -10 l33 13 18 -90 c33 -163 115
-284 217 -319 133 -47 238 -62 469 -65 124 -1 265 -7 314 -14 135 -17 218 3
276 66 14 15 58 54 98 87 64 53 77 70 116 151 53 110 99 245 122 359 14 68 16
114 10 258 -4 96 -13 206 -21 243 -26 126 -88 206 -205 267 -30 16 -48 29 -40
30 8 0 209 16 445 35 434 36 645 46 1320 65 951 27 2029 105 2290 165 305 71
659 320 948 667 102 122 155 267 144 390 -11 122 -145 331 -367 572 -36 39
-83 102 -105 140 -47 82 -163 204 -257 270 -75 53 -358 216 -492 283 -116 58
-270 109 -381 125 -141 20 -1355 17 -1835 -5 -206 -10 -381 -20 -388 -22 -9
-3 -12 1 -8 13 3 9 145 466 316 1015 l312 998 -163 527 c-89 290 -163 528
-164 530 -2 3 -349 40 -353 37 -1 -1 25 -225 58 -498 33 -273 60 -508 60 -522
0 -15 -241 -447 -611 -1093 -337 -587 -613 -1069 -615 -1071 -4 -4 -334 -24
-1304 -81 -195 -11 -551 -32 -790 -46 -739 -44 -1093 -23 -1460 88 -373 112
-478 161 -606 282 l-91 85 53 238 c29 131 51 239 49 241 -3 3 -228 31 -257 32
-3 0 -26 -38 -50 -85 -23 -47 -45 -85 -48 -85 -3 0 -14 17 -26 38 -146 263
-217 396 -390 737 -210 413 -504 1022 -754 1558 -122 261 -146 307 -164 306
-12 0 -110 -27 -220 -59z"/>
</g>
</svg>